<svg xmlns="http://www.w3.org/2000/svg" width="640" height="420" viewBox="0 0 640 420" role="img" aria-label="Scarf">
  <defs>
    <linearGradient id="bg" x1="0" y1="0" x2="1" y2="1">
      <stop offset="0" stop-color="#1d1e4f" stop-opacity="0.95"/>
      <stop offset="1" stop-color="#8a1538" stop-opacity="0.95"/>
    </linearGradient>
    <radialGradient id="g" cx="30%" cy="30%" r="70%">
      <stop offset="0" stop-color="#f5c400" stop-opacity="0.35"/>
      <stop offset="1" stop-color="#f5c400" stop-opacity="0"/>
    </radialGradient>
    <radialGradient id="v" cx="50%" cy="60%" r="70%">
      <stop offset="0" stop-color="rgba(0,0,0,0)" />
      <stop offset="1" stop-color="rgba(0,0,0,0.28)" />
    </radialGradient>
  </defs>

  <rect width="640" height="420" rx="28" fill="url(#bg)"/>
  <circle cx="180" cy="120" r="180" fill="url(#g)"/>
  <circle cx="520" cy="90" r="140" fill="url(#g)" opacity="0.7"/>

  <rect x="70" y="70" width="500" height="280" rx="26" fill="rgba(255,255,255,0.06)" stroke="rgba(255,255,255,0.14)"/>
  
        <path d="M220 150c0-20 16-36 36-36h128c20 0 36 16 36 36v30c0 20-16 36-36 36H256c-20 0-36-16-36-36z"
              fill="rgba(255,255,255,0.18)" stroke="rgba(255,255,255,0.22)" stroke-width="3"/>
        <path d="M250 222v110" stroke="rgba(245,196,0,0.80)" stroke-width="10" stroke-linecap="round"/>
        <path d="M390 222v110" stroke="rgba(245,196,0,0.55)" stroke-width="10" stroke-linecap="round"/>
        <path d="M270 222v110" stroke="rgba(255,255,255,0.18)" stroke-width="8" stroke-linecap="round"/>
        <path d="M370 222v110" stroke="rgba(255,255,255,0.14)" stroke-width="8" stroke-linecap="round"/>
        

  <text x="90" y="92" fill="rgba(255,255,255,0.78)" font-size="16" font-family="system-ui, -apple-system, Segoe UI, Roboto, Arial" font-weight="700">
    Scarf
  </text>

  <rect width="640" height="420" rx="28" fill="url(#v)"/>
</svg>