<svg xmlns="http://www.w3.org/2000/svg" width="640" height="420" viewBox="0 0 640 420" role="img" aria-label="Gallery illustration 09">
  <defs>
    <linearGradient id="bg" x1="0" y1="0" x2="1" y2="1">
      <stop offset="0" stop-color="#1d1e4f" stop-opacity="0.95"/>
      <stop offset="1" stop-color="#8a1538" stop-opacity="0.95"/>
    </linearGradient>
    <radialGradient id="v" cx="50%" cy="60%" r="70%">
      <stop offset="0" stop-color="rgba(0,0,0,0)" />
      <stop offset="1" stop-color="rgba(0,0,0,0.25)" />
    </radialGradient>
  </defs>
  <rect width="640" height="420" rx="28" fill="url(#bg)"/>
  <circle cx="60" cy="215" r="154" fill="#f5c400" opacity="0.19"/><circle cx="79" cy="66" r="133" fill="#f5c400" opacity="0.20"/><circle cx="98" cy="328" r="75" fill="#f5c400" opacity="0.25"/><circle cx="408" cy="54" r="137" fill="#f5c400" opacity="0.24"/>
  <g><path d="M237 152 L432 83" stroke="rgba(255,255,255,0.11)" stroke-width="3" stroke-linecap="round"/><path d="M436 305 L580 221" stroke="rgba(255,255,255,0.20)" stroke-width="4" stroke-linecap="round"/><path d="M-25 69 L107 -31" stroke="rgba(255,255,255,0.16)" stroke-width="4" stroke-linecap="round"/><path d="M585 349 L840 266" stroke="rgba(255,255,255,0.13)" stroke-width="2" stroke-linecap="round"/><path d="M429 398 L583 329" stroke="rgba(255,255,255,0.14)" stroke-width="3" stroke-linecap="round"/><path d="M420 97 L549 35" stroke="rgba(255,255,255,0.16)" stroke-width="2" stroke-linecap="round"/></g>

  <!-- Abstract pitch arc -->
  <path d="M120 320c140 80 260 80 400 0" fill="none" stroke="rgba(255,255,255,0.16)" stroke-width="3"/>
  <path d="M160 340c120 64 200 64 320 0" fill="none" stroke="rgba(255,255,255,0.12)" stroke-width="3"/>

  
    <g transform="translate(369 250)" opacity="0.9">
      <circle cx="0" cy="-55" r="16" fill="rgba(255,255,255,0.20)"/>
      <path d="M-22 -40c12-10 32-10 44 0 2 20-3 38-15 58h-14c-12-20-17-38-15-58z" fill="rgba(255,255,255,0.14)"/>
      <path d="M-8 18l-26 52" stroke="rgba(245,196,0,0.80)" stroke-width="12" stroke-linecap="round"/>
      <path d="M16 18l30 42" stroke="rgba(245,196,0,0.52)" stroke-width="12" stroke-linecap="round"/>
    </g>
    
  
    <g transform="translate(489 339)">
      <circle cx="0" cy="0" r="18" fill="rgba(245,196,0,0.85)" stroke="rgba(0,0,0,0.20)" stroke-width="2"/>
      <path d="M0 -10l6 5-2 8h-8l-2-8z" fill="rgba(0,0,0,0.20)"/>
    </g>
    

  <rect width="640" height="420" rx="28" fill="url(#v)"/>
  <rect x="18" y="18" width="604" height="384" rx="22" fill="rgba(255,255,255,0.05)" stroke="rgba(255,255,255,0.14)"/>
</svg>