<svg xmlns="http://www.w3.org/2000/svg" width="640" height="420" viewBox="0 0 640 420" role="img" aria-label="Gallery illustration 06">
  <defs>
    <linearGradient id="bg" x1="0" y1="0" x2="1" y2="1">
      <stop offset="0" stop-color="#8a1538" stop-opacity="0.95"/>
      <stop offset="1" stop-color="#1d1e4f" stop-opacity="0.95"/>
    </linearGradient>
    <radialGradient id="v" cx="50%" cy="60%" r="70%">
      <stop offset="0" stop-color="rgba(0,0,0,0)" />
      <stop offset="1" stop-color="rgba(0,0,0,0.25)" />
    </radialGradient>
  </defs>
  <rect width="640" height="420" rx="28" fill="url(#bg)"/>
  <circle cx="145" cy="325" r="83" fill="#f5c400" opacity="0.28"/><circle cx="100" cy="326" r="151" fill="#f5c400" opacity="0.28"/><circle cx="575" cy="162" r="90" fill="#f5c400" opacity="0.29"/><circle cx="358" cy="109" r="132" fill="#f5c400" opacity="0.20"/>
  <g><path d="M-24 171 L236 123" stroke="rgba(255,255,255,0.15)" stroke-width="4" stroke-linecap="round"/><path d="M51 8 L239 -56" stroke="rgba(255,255,255,0.19)" stroke-width="2" stroke-linecap="round"/><path d="M138 317 L357 188" stroke="rgba(255,255,255,0.21)" stroke-width="3" stroke-linecap="round"/><path d="M493 50 L722 -46" stroke="rgba(255,255,255,0.21)" stroke-width="2" stroke-linecap="round"/><path d="M161 268 L322 213" stroke="rgba(255,255,255,0.18)" stroke-width="4" stroke-linecap="round"/><path d="M237 382 L462 246" stroke="rgba(255,255,255,0.19)" stroke-width="2" stroke-linecap="round"/></g>

  <!-- Abstract pitch arc -->
  <path d="M120 320c140 80 260 80 400 0" fill="none" stroke="rgba(255,255,255,0.16)" stroke-width="3"/>
  <path d="M160 340c120 64 200 64 320 0" fill="none" stroke="rgba(255,255,255,0.12)" stroke-width="3"/>

  
    <g transform="translate(287 250)" opacity="0.9">
      <circle cx="0" cy="-55" r="16" fill="rgba(255,255,255,0.20)"/>
      <path d="M-22 -40c12-10 32-10 44 0 2 20-3 38-15 58h-14c-12-20-17-38-15-58z" fill="rgba(255,255,255,0.14)"/>
      <path d="M-8 18l-26 52" stroke="rgba(245,196,0,0.80)" stroke-width="12" stroke-linecap="round"/>
      <path d="M16 18l30 42" stroke="rgba(245,196,0,0.52)" stroke-width="12" stroke-linecap="round"/>
    </g>
    
  
    <g transform="translate(237 287)">
      <circle cx="0" cy="0" r="18" fill="rgba(245,196,0,0.85)" stroke="rgba(0,0,0,0.20)" stroke-width="2"/>
      <path d="M0 -10l6 5-2 8h-8l-2-8z" fill="rgba(0,0,0,0.20)"/>
    </g>
    

  <rect width="640" height="420" rx="28" fill="url(#v)"/>
  <rect x="18" y="18" width="604" height="384" rx="22" fill="rgba(255,255,255,0.05)" stroke="rgba(255,255,255,0.14)"/>
</svg>